<svg xmlns="http://www.w3.org/2000/svg" width="80" height="80" fill="none" viewBox="0 0 80 80"><path fill="url(#a)" d="M80 14Q79.75 4 69.45 4H10.5Q.25 4 0 14v55.95Q.25 80 10.5 80h58.95Q79.75 80 80 69.95z"/><path fill="url(#b)" d="M80 10.5Q80 0 69.45 0H10.5Q0 0 0 10.5V14Q.25 4 10.5 4h58.95Q79.75 4 80 14z"/><path fill="#fff" d="M32.167 37.962q-2.901-2.95-7.05-2.95-4.15 0-7.05 2.95-2.95 2.9-2.95 7.05h20q0-4.15-2.95-7.05"/><path fill="#3D465D" d="M29.367 40.762q-1.75-1.75-4.25-1.75-2.451 0-4.2 1.75-1.8 1.75-1.8 4.25h12q0-2.5-1.75-4.25"/><path fill="#fff" d="M62.167 37.962q-2.901-2.95-7.05-2.95-4.15 0-7.05 2.95-2.95 2.9-2.95 7.05h20q0-4.15-2.95-7.05"/><path fill="#3D465D" d="M59.367 40.762q-1.75-1.75-4.25-1.75-2.451 0-4.2 1.75-1.8 1.75-1.8 4.25h12q0-2.5-1.75-4.25m-45.3-3.15.8 2.9q.2.85.9 1.25a1.96 1.96 0 0 0 1.5.2l15.45-4.15q.85-.2 1.25-.95.4-.651.2-1.5l-.8-2.9a2.02 2.02 0 0 0-.9-1.25q-.7-.351-1.55-.15l-15.45 4.15a1.84 1.84 0 0 0-1.2.9 1.96 1.96 0 0 0-.2 1.5m32.25-5.65q.35.65 1.2.85l15.45 4.15q.8.25 1.55-.1.65-.45.85-1.25l.8-2.9q.2-.85-.15-1.5a2.18 2.18 0 0 0-1.25-1l-15.45-4.15q-.85-.2-1.5.25-.75.35-.95 1.2l-.8 2.9q-.2.8.25 1.55m3.75 19.949q-.7-.45-1.55-.2-.8.2-1.25.85-.4.55-1.15 1.05-1.851 1.15-4.35 1.15-1.15 0-2.15-.2-.85-.15-1.55.3-.7.351-.9 1.2-.201.75.3 1.45.4.6 1.3.8 1.35.3 3 .3 3.85 0 6.65-1.8l-.05.05q1.7-1.05 2.5-2.35.4-.7.2-1.45a1.81 1.81 0 0 0-1-1.15"/><defs><linearGradient id="a" x1="40" x2="40" y1="0" y2="80" gradientUnits="userSpaceOnUse"><stop stop-color="#71CF93"/><stop offset="1" stop-color="#59B15C"/></linearGradient><linearGradient id="b" x1="39.75" x2="39.75" y1="-.25" y2="43.25" gradientUnits="userSpaceOnUse"><stop stop-color="#85DFAF"/><stop offset="1" stop-color="#69C581"/></linearGradient></defs></svg>